<?xml version="1.0" standalone="no"?>
<!DOCTYPE svg PUBLIC "-//W3C//DTD SVG 20010904//EN"
 "http://www.w3.org/TR/2001/REC-SVG-20010904/DTD/svg10.dtd">
<svg version="1.0" xmlns="http://www.w3.org/2000/svg"
 width="599.000000pt" height="416.000000pt" viewBox="0 0 599.000000 416.000000"
 preserveAspectRatio="xMidYMid meet">

<g transform="translate(0.000000,416.000000) scale(0.100000,-0.100000)"
fill="#000000" stroke="none">
<path d="M2795 3940 c-330 -32 -685 -188 -950 -416 -417 -359 -651 -873 -649
-1429 1 -354 88 -668 266 -965 88 -146 173 -253 299 -375 316 -306 720 -484
1139 -501 343 -13 613 43 894 186 195 100 306 181 465 339 225 226 359 447
461 766 62 191 75 286 75 555 0 216 -3 258 -23 354 -45 217 -114 404 -215 581
-96 170 -164 255 -326 413 -247 242 -519 387 -870 466 -93 21 -147 27 -300 30
-102 3 -222 1 -266 -4z m432 -52 c65 -25 86 -46 55 -55 -27 -7 -28 -24 -2 -48
46 -41 10 -47 -68 -10 -30 14 -63 25 -73 25 -15 0 -19 7 -19 32 0 33 -24 68
-47 68 -7 0 -13 4 -13 9 0 15 111 1 167 -21z m-340 2 c62 0 76 -17 51 -61 -19
-32 -15 -39 24 -39 42 0 36 -27 -7 -32 -45 -5 -59 4 -50 32 8 25 15 24 -86 4
-28 -6 -50 -29 -123 -129 -14 -19 19 -65 47 -65 13 0 38 -11 56 -24 23 -17 52
-26 102 -31 67 -7 69 -8 69 -35 0 -23 5 -30 29 -35 22 -5 30 -13 35 -36 5 -26
10 -30 33 -27 31 3 31 -6 22 228 l-4 105 40 3 c33 2 52 -4 103 -37 34 -22 62
-45 62 -51 0 -17 41 -11 77 11 l35 22 47 -47 c44 -43 50 -46 101 -46 39 0 51
3 40 10 -8 5 -28 10 -45 11 -29 1 -29 1 -5 9 43 13 216 -14 190 -30 -7 -4 1
-25 25 -61 34 -52 50 -92 20 -53 -13 18 -14 16 -15 -24 0 -24 -5 -52 -10 -63
-8 -15 -7 -19 4 -19 25 0 27 -29 2 -36 -48 -12 -80 -1 -91 31 -17 50 -30 58
-85 50 l-50 -7 0 -46 c0 -67 11 -80 51 -65 36 14 52 8 29 -10 -8 -7 -15 -21
-15 -32 0 -22 -28 -33 -95 -34 -36 -1 -50 -7 -80 -36 -20 -20 -59 -44 -86 -54
-48 -19 -49 -20 -54 -69 -3 -28 -13 -59 -23 -69 -9 -11 -17 -28 -17 -37 0 -10
-20 -38 -45 -63 -25 -24 -56 -65 -70 -91 -14 -26 -31 -55 -37 -64 -10 -14 -9
-27 6 -67 33 -92 5 -135 -33 -51 -31 70 -59 86 -141 82 -36 -1 -89 -9 -118
-17 -29 -9 -57 -13 -63 -9 -37 22 -99 -47 -99 -110 0 -19 -7 -53 -15 -76 -21
-58 -19 -77 8 -86 12 -4 42 -21 66 -38 l43 -31 32 37 c23 27 40 37 66 40 30 3
35 0 38 -21 2 -12 1 -34 -2 -47 l-6 -24 -246 0 c-150 0 -253 4 -265 10 -13 7
-19 21 -19 43 0 18 -9 43 -20 57 -11 14 -20 30 -20 36 0 6 -7 17 -15 24 -8 7
-13 16 -10 19 2 4 -18 38 -46 76 -27 37 -52 79 -55 92 -8 31 -22 29 -30 -3 -5
-19 4 -47 36 -110 24 -46 40 -87 36 -91 -18 -18 -62 25 -84 82 -13 33 -32 78
-43 100 -10 22 -23 58 -29 80 -7 29 -22 51 -54 77 -46 39 -76 102 -76 161 0
22 -4 28 -16 23 -9 -3 -22 -6 -30 -6 -16 0 -33 -35 -57 -117 l-16 -53 55 0
c44 0 54 3 54 17 0 12 3 14 11 6 15 -15 13 -38 -10 -123 -31 -112 -31 -110 39
-110 58 0 60 1 69 33 l9 32 1 -31 c1 -23 7 -33 21 -37 25 -7 26 -27 1 -27 -22
0 -25 -10 -42 -152 -7 -60 -16 -108 -21 -108 -10 0 -10 49 1 130 5 36 11 80
13 99 l3 35 -60 -3 c-33 -1 -61 -4 -62 -5 -3 -2 -20 -126 -28 -198 -5 -40 -11
-58 -20 -58 -10 0 -13 8 -9 28 2 15 11 73 18 130 l13 103 -61 -3 -61 -3 -12
-85 c-6 -47 -15 -104 -18 -127 -3 -24 -11 -43 -17 -43 -12 0 -3 106 16 201
l13 59 -53 0 -53 0 -11 -39 c-10 -38 -29 -168 -30 -203 0 -10 -7 -18 -15 -18
-11 0 -14 7 -10 23 12 56 36 239 32 243 -2 3 -23 2 -45 -2 l-40 -6 -17 -72
c-9 -39 -19 -97 -22 -128 -4 -37 -10 -58 -18 -58 -16 0 -11 44 15 170 10 47
17 86 17 87 -1 0 -20 3 -42 5 l-39 3 -23 -94 c-12 -51 -25 -96 -28 -99 -10
-10 -5 53 10 113 19 78 19 75 -14 75 -27 0 -30 -4 -46 -65 -10 -36 -21 -65
-25 -65 -4 0 1 30 12 68 10 37 20 76 23 87 19 78 123 331 132 321 3 -2 -2 -17
-10 -33 -8 -15 -17 -41 -21 -56 -6 -26 -5 -28 21 -25 24 3 34 14 65 78 20 41
37 78 37 83 1 4 -12 7 -29 7 -21 0 -30 5 -30 16 0 11 9 15 33 14 17 -1 38 -2
44 -1 12 1 73 121 73 142 0 5 -9 9 -21 9 -32 0 -17 25 17 28 26 3 32 9 43 48
13 42 49 100 57 91 2 -2 -5 -25 -17 -51 -11 -26 -19 -49 -17 -50 26 -17 58
-36 62 -36 6 0 66 146 66 160 0 8 -13 10 -42 5 -42 -7 -43 -7 -25 12 14 16 26
19 67 15 l50 -5 -2 46 c-2 42 1 49 37 82 111 100 457 295 524 295 10 0 43 11
73 25 30 14 96 31 147 39 50 7 95 17 99 21 4 4 27 4 51 1 24 -3 68 -6 98 -6z
m628 -56 c44 -13 94 -31 112 -39 17 -8 36 -15 41 -15 6 0 34 -12 62 -27 56
-29 86 -63 76 -88 -12 -32 -61 -15 -203 73 -219 135 -222 139 -88 96z m-5 -64
c0 -5 -2 -10 -4 -10 -3 0 -8 5 -11 10 -3 6 -1 10 4 10 6 0 11 -4 11 -10z m416
-158 c39 2 97 -29 90 -48 -3 -9 -1 -25 5 -37 5 -12 -5 -5 -23 16 -31 35 -78
51 -78 27 0 -5 5 -10 10 -10 6 0 31 -31 56 -70 35 -55 50 -70 69 -70 29 0 30
3 9 36 -9 13 -14 27 -11 30 3 3 18 -13 33 -35 14 -23 33 -41 40 -41 19 0 17
13 -7 54 -12 20 -16 36 -11 36 6 0 21 -17 33 -37 27 -45 37 -53 65 -53 11 0
29 -9 40 -21 18 -20 18 -20 -10 -13 -27 7 -27 5 26 -74 41 -64 62 -85 93 -99
35 -15 37 -17 17 -21 -28 -4 -24 -22 26 -109 32 -55 39 -62 71 -65 44 -4 55
-28 12 -28 -36 0 -36 -1 -15 -42 15 -29 64 -164 64 -177 0 -3 -5 0 -12 7 -7 7
-29 12 -49 12 -29 0 -43 6 -58 26 -12 15 -21 31 -21 35 0 5 -14 40 -31 79 -31
68 -33 70 -65 68 -37 -2 -39 -7 -25 -56 13 -45 0 -39 -24 11 l-20 42 -87 3
-88 3 0 -28 -1 -28 -15 28 c-12 23 -21 27 -55 27 l-41 0 5 -57 6 -58 -17 55
-18 55 -53 3 c-47 3 -52 1 -47 -15 9 -30 25 -107 26 -120 0 -7 -4 -13 -8 -13
-5 0 -14 26 -21 58 -21 97 -17 92 -72 92 -56 0 -55 4 -31 -100 l18 -75 47 -3
c33 -2 47 -7 47 -18 0 -10 -12 -14 -43 -14 l-43 0 14 -77 c7 -43 18 -86 23
-96 5 -10 7 -22 5 -26 -3 -5 1 -48 9 -97 17 -103 19 -154 6 -154 -11 0 -16 24
-32 153 l-12 97 -68 0 -68 0 4 -47 c23 -253 6 -248 -24 7 -12 102 -24 197 -27
211 l-5 27 -177 7 c-221 9 -203 27 26 26 141 -1 153 1 148 17 -2 9 -7 33 -11
52 -4 19 -11 52 -16 73 l-10 37 -119 0 c-73 0 -120 4 -120 10 0 6 19 10 43 11
23 0 74 2 114 2 39 1 74 4 76 7 3 3 0 35 -7 73 -15 79 -3 91 14 15 21 -94 15
-88 79 -88 l59 0 -27 90 -26 90 -65 2 -65 2 55 3 c30 3 60 9 67 14 7 6 78 11
162 12 83 1 151 5 151 10 0 4 -16 39 -35 78 -23 44 -45 74 -61 81 -41 19 -22
33 40 30 67 -5 68 -7 -9 97 -25 34 -44 65 -41 68 2 3 19 13 38 22 27 14 35 15
44 4 6 -7 24 -13 40 -11z m415 -335 c12 -22 12 -22 -10 -3 -11 11 -21 23 -21
28 0 14 19 -1 31 -25z m134 -179 c49 -82 48 -78 36 -78 -33 0 -108 97 -97 126
10 25 23 15 61 -48z m124 -220 c72 -178 121 -338 140 -456 6 -40 11 -77 11
-82 0 -6 -43 -10 -104 -10 l-103 0 -17 108 c-9 59 -16 129 -16 156 0 52 18
116 33 116 21 0 38 72 31 135 -6 71 4 84 25 33z m-408 -8 c17 -16 53 -41 82
-55 81 -41 124 -98 162 -213 16 -49 16 -55 1 -77 -22 -33 -60 -33 -82 0 -14
22 -15 30 -4 50 17 31 7 64 -33 117 -49 65 -86 80 -177 72 -41 -4 -87 -13
-102 -20 -61 -31 -118 -138 -89 -167 27 -27 0 -97 -37 -97 -25 0 -62 41 -62
70 0 14 10 55 22 90 21 64 46 94 164 200 78 70 110 76 155 30z m17 -226 c57
-40 65 -119 15 -168 -48 -48 -104 -47 -154 4 -47 47 -35 134 22 166 33 18 90
17 117 -2z m-1222 -152 c-13 -12 -17 8 -10 40 l9 33 3 -33 c2 -19 1 -36 -2
-40z m472 -42 c0 -42 -2 -49 -8 -30 -11 35 -11 131 0 105 5 -11 8 -45 8 -75z
m-641 33 c-3 -10 -5 -2 -5 17 0 19 2 27 5 18 2 -10 2 -26 0 -35z m384 -18 c41
-19 87 -35 103 -35 29 0 96 -35 96 -50 0 -5 -19 -14 -42 -21 -36 -9 -47 -9
-68 5 -64 40 -148 76 -181 76 -19 0 -44 6 -54 14 -18 13 -17 14 11 29 41 23
54 21 135 -18z m-1035 -77 c-8 -55 -12 -65 -22 -55 -10 9 7 107 18 107 7 0 8
-18 4 -52z m-871 20 c26 -12 42 -48 30 -67 -10 -17 -75 -14 -75 3 0 19 12 76
16 76 2 0 15 -5 29 -12z m3061 -33 c12 -30 -16 -45 -79 -45 l-60 0 54 29 c62
34 77 37 85 16z m-848 -7 c8 -8 9 -15 1 -25 -18 -21 -39 -15 -39 12 0 27 18
33 38 13z m-512 -35 c-10 -10 -19 5 -10 18 6 11 8 11 12 0 2 -7 1 -15 -2 -18z
m1768 -95 c13 -115 3 -305 -25 -450 l-12 -58 -1732 0 -1732 0 -7 63 c-3 34
-11 96 -16 137 -11 88 -13 233 -4 308 l7 52 1757 0 1757 0 7 -52z m-3414 -552
c0 -2 -11 -23 -24 -46 -22 -39 -25 -40 -31 -20 -12 37 2 70 30 70 14 0 25 -2
25 -4z m140 -121 c12 -55 31 -122 41 -150 22 -58 22 -58 10 -50 -19 11 -92
264 -91 313 1 35 18 -12 40 -113z m130 -7 c45 -181 44 -178 80 -178 18 0 29
-4 25 -10 -3 -5 -15 -10 -26 -10 -23 0 -24 -9 -4 -57 22 -52 9 -54 -15 -2 -11
24 -24 51 -29 59 -8 14 -82 307 -81 323 0 4 4 7 8 7 5 0 24 -60 42 -132z m161
111 c23 -23 24 -47 2 -71 -33 -37 -103 -11 -103 38 0 13 -10 30 -22 38 -21 15
-18 16 41 15 48 -1 68 -6 82 -20z m703 -46 c3 -38 8 -112 12 -165 l6 -98 68 0
69 0 -6 165 c-5 121 -3 165 5 165 8 0 12 -30 13 -92 1 -51 4 -127 8 -168 l6
-75 40 1 c22 1 52 2 68 3 l27 1 0 165 c0 140 2 165 15 165 13 0 15 -25 15
-165 l0 -165 70 0 70 0 0 165 c0 103 4 165 10 165 6 0 10 -62 10 -165 l0 -165
79 0 c49 0 83 4 87 11 4 8 11 3 20 -12 7 -13 9 -26 4 -29 -4 -3 -9 -42 -11
-87 l-4 -83 77 0 c71 0 78 2 78 20 0 11 5 20 10 20 6 0 10 -9 10 -20 0 -17 7
-20 41 -20 l41 0 -22 28 c-11 15 -33 45 -48 67 -15 22 -42 55 -60 74 -52 54
-115 129 -144 172 -30 46 -53 129 -44 164 l6 25 625 0 626 0 5 -30 c4 -16 13
-35 20 -41 17 -14 18 -62 2 -92 -6 -12 -24 -38 -39 -57 -19 -24 -30 -52 -35
-90 -8 -62 -23 -98 -59 -138 -14 -15 -35 -43 -48 -62 -18 -28 -34 -38 -81 -51
-54 -14 -62 -20 -93 -67 -18 -29 -33 -60 -33 -69 0 -23 -62 -113 -77 -113 -7
0 -39 -42 -72 -92 -33 -51 -68 -102 -79 -113 -10 -11 -28 -36 -40 -55 -25 -41
-92 -109 -92 -92 0 6 9 20 20 30 19 17 41 47 161 216 23 32 35 55 28 50 -8 -4
-33 -21 -55 -36 -23 -15 -45 -28 -48 -28 -3 0 -25 -13 -48 -30 -22 -16 -50
-30 -62 -30 -12 0 -26 -4 -32 -8 -18 -11 -125 -145 -137 -169 -6 -13 -14 -23
-19 -23 -13 0 -10 -124 4 -138 16 -16 6 -23 -31 -24 -31 -1 -59 24 -88 80 -16
30 -17 82 -2 82 6 0 9 7 5 15 -3 8 10 42 29 75 43 76 54 116 48 172 l-5 45
-54 1 c-30 0 -56 -4 -59 -8 -3 -5 -10 -32 -15 -61 -8 -40 -7 -55 2 -61 10 -6
9 -8 -3 -8 -11 0 -18 -12 -22 -36 -8 -49 -49 -185 -54 -180 -2 2 5 42 16 89
31 127 31 127 -34 127 -49 0 -55 -2 -59 -22 -3 -13 -12 -59 -20 -103 l-14 -80
5 85 c3 46 6 91 7 100 1 11 -12 16 -56 18 l-58 3 -1 -78 c-1 -88 -16 -67 -18
25 l-1 52 -51 0 -52 0 6 -62 5 -63 -13 40 c-8 22 -14 50 -14 63 -1 20 -6 22
-56 22 -52 0 -55 -1 -51 -22 18 -84 27 -140 23 -144 -2 -3 -10 17 -16 43 -33
134 -26 123 -82 123 l-51 0 7 -37 c4 -21 15 -63 26 -93 10 -30 19 -59 19 -64
0 -22 -15 10 -45 96 l-32 93 -53 3 c-50 3 -51 2 -45 -20 4 -13 20 -51 36 -85
16 -34 29 -66 29 -70 0 -5 16 -33 36 -63 48 -73 62 -102 31 -65 -56 66 -143
245 -191 392 l-17 51 -52 4 c-29 2 -54 3 -56 1 -2 -1 7 -29 20 -60 24 -56 26
-58 69 -64 l45 -6 -37 -1 c-23 -1 -38 -7 -38 -14 1 -19 35 -91 51 -108 18 -19
53 -93 40 -86 -17 11 -104 167 -141 255 -37 84 -38 86 -81 98 l-44 11 38 1
c20 1 37 2 37 4 0 1 -9 31 -20 65 -23 73 -28 129 -6 72 7 -19 23 -61 35 -92
l22 -58 55 0 c62 0 63 2 38 86 l-15 54 -52 1 c-38 0 -47 3 -32 9 11 5 32 9 48
9 16 1 27 7 27 15 0 16 -18 114 -26 139 -5 15 3 17 75 17 l80 0 -6 53 c-11
108 -17 122 -46 125 -34 4 -26 22 10 22 25 0 26 1 19 48 -14 100 -19 282 -9
282 6 0 14 -30 17 -67z m-328 42 c66 -19 127 -73 160 -141 36 -74 31 -160 -15
-251 -33 -67 -183 -294 -206 -313 -11 -9 -23 0 -59 47 -73 92 -171 243 -194
300 -47 111 -21 227 66 303 72 64 156 83 248 55z m-746 -265 c21 -11 56 -31
77 -46 21 -14 75 -46 120 -70 80 -44 83 -45 107 -28 31 19 49 14 72 -20 23
-36 12 -71 -27 -85 -28 -10 -34 -8 -58 17 -14 16 -92 66 -173 112 -81 46 -149
91 -152 100 -3 8 -9 21 -12 28 -8 17 0 15 46 -8z m389 -328 c58 -117 171 -297
239 -381 15 -19 22 -32 16 -28 -20 12 -91 110 -163 225 -77 122 -139 238 -122
227 6 -3 19 -23 30 -43z m198 -160 c43 -74 97 -159 119 -190 23 -32 48 -70 57
-87 8 -16 29 -43 46 -59 29 -28 43 -54 21 -41 -15 9 -139 177 -194 263 -26 39
-52 72 -58 72 -6 0 -9 3 -5 6 9 9 -16 55 -80 147 -29 43 -53 84 -53 90 0 25
72 -73 147 -201z m2142 137 c-70 -139 -216 -335 -356 -480 -129 -133 -227
-215 -119 -98 39 40 95 99 125 130 63 62 156 174 186 222 11 18 27 40 36 50
13 14 54 77 126 195 23 37 25 24 2 -19z m15 -151 c-4 -7 -40 -53 -80 -103 -77
-96 -144 -165 -144 -149 0 5 18 28 41 49 22 22 73 79 112 128 66 81 88 105 71
75z m-1964 -106 c0 -5 13 -29 30 -55 26 -42 34 -47 67 -49 37 -1 37 -1 6 -5
l-33 -4 14 -33 c7 -18 30 -54 50 -81 42 -54 41 -75 0 -25 -41 48 -100 145
-144 236 -46 94 -50 112 -15 60 14 -20 25 -40 25 -44z m1468 -119 c-23 -28
-58 -93 -58 -108 0 -8 -9 -19 -19 -24 -10 -6 -31 -31 -45 -56 -15 -25 -29 -45
-32 -45 -3 0 7 22 23 48 15 27 48 83 73 125 25 42 51 77 59 77 12 0 12 -3 -1
-17z m-1518 -105 c0 -6 -6 -5 -15 2 -8 7 -15 14 -15 16 0 2 7 1 15 -2 8 -4 15
-11 15 -16z m1730 2 c-29 -22 -60 -32 -60 -19 0 9 55 37 75 38 6 0 -1 -8 -15
-19z m70 16 c0 -3 -4 -8 -10 -11 -5 -3 -10 -1 -10 4 0 6 5 11 10 11 6 0 10 -2
10 -4z m-315 -36 c3 -5 1 -10 -4 -10 -6 0 -11 5 -11 10 0 6 2 10 4 10 3 0 8
-4 11 -10z m15 -43 c0 -2 -12 -14 -27 -28 l-28 -24 24 28 c23 25 31 32 31 24z
m-1244 -44 c23 -31 24 -34 5 -18 -22 19 -46 55 -38 55 3 0 17 -17 33 -37z
m410 -46 c13 -27 24 -57 24 -67 0 -10 5 -22 10 -25 6 -3 10 -11 10 -18 0 -8
-3 -8 -10 -1 -12 12 -70 163 -69 179 0 6 3 3 6 -5 3 -8 16 -37 29 -63z m-306
11 c15 -21 17 -28 6 -19 -16 13 -41 51 -33 51 2 0 14 -15 27 -32z m219 -48
c23 -41 32 -64 20 -50 -21 24 -69 113 -69 126 0 11 5 4 49 -76z m466 -8 c-20
-52 -42 -83 -30 -42 13 49 40 110 44 99 2 -6 -5 -32 -14 -57z m350 24 c-9 -13
-24 -27 -33 -31 -10 -4 -5 6 12 24 36 37 42 39 21 7z m-458 -28 c-3 -7 -5 -2
-5 12 0 14 2 19 5 13 2 -7 2 -19 0 -25z"/>
<path d="M3633 3597 c122 -79 118 -77 106 -54 -24 46 -51 67 -88 66 -32 0 -34
-2 -18 -12z"/>
<path d="M1829 3343 c-40 -104 -49 -129 -49 -135 0 -5 20 -8 44 -8 l44 0 22
66 c21 62 21 66 4 85 -25 27 -53 24 -65 -8z"/>
<path d="M1925 3298 c-35 -96 -35 -98 -15 -98 11 0 20 8 22 20 3 20 4 19 40
-6 36 -25 38 -26 74 -12 l38 15 -25 13 c-13 7 -37 25 -54 40 -37 34 -73 47
-80 28z"/>
<path d="M1890 3181 c-19 -5 -30 -21 -47 -66 -34 -92 -32 -97 26 -92 68 5 87
26 72 76 -6 21 -11 50 -11 65 0 28 -1 28 -40 17z"/>
<path d="M1653 3168 c-13 -16 -63 -128 -63 -139 0 -5 17 -9 39 -9 38 0 39 1
70 70 17 39 31 75 31 80 0 14 -66 12 -77 -2z"/>
<path d="M1749 3159 c-10 -19 -49 -127 -49 -136 0 -1 20 -3 45 -3 25 0 45 1
45 3 0 1 11 34 25 72 13 39 25 73 25 78 0 4 -18 7 -40 7 -30 0 -42 -5 -51 -21z"/>
<path d="M1652 2988 c-5 -7 -17 -30 -26 -50 -9 -21 -23 -54 -31 -73 l-15 -35
43 0 43 0 32 78 c18 42 32 80 32 85 0 12 -67 8 -78 -5z"/>
<path d="M1751 2981 c-6 -10 -21 -49 -35 -85 l-24 -66 48 0 48 0 26 81 c14 44
26 82 26 85 0 2 -18 4 -40 4 -28 0 -42 -5 -49 -19z"/>
<path d="M1546 2968 c-16 -26 -56 -123 -56 -138 0 -12 40 -13 57 -2 12 7 73
136 73 153 0 20 -60 9 -74 -13z"/>
<path d="M1698 2803 c-17 -4 -38 -51 -58 -128 -14 -56 -15 -55 40 -55 l49 0
11 43 c6 23 17 63 24 89 8 26 11 50 8 53 -6 6 -48 5 -74 -2z"/>
<path d="M1474 2792 c-11 -7 -46 -93 -58 -144 -6 -27 -5 -28 32 -28 l38 0 27
83 c15 46 27 86 27 90 0 9 -52 9 -66 -1z"/>
<path d="M1565 2788 c-12 -31 -55 -162 -55 -165 0 -2 21 -3 47 -1 l47 3 27 88
27 87 -44 0 c-27 0 -47 -5 -49 -12z"/>
<path d="M1791 2763 c-6 -21 -17 -62 -25 -90 l-14 -53 59 0 c56 0 59 1 65 28
3 15 12 52 20 83 8 31 14 60 14 63 0 3 -25 6 -55 6 l-54 0 -10 -37z"/>
<path d="M1356 2712 c-14 -42 -26 -81 -26 -85 0 -5 12 -7 28 -5 27 3 33 14 78
151 4 14 -1 17 -25 17 -28 0 -31 -4 -55 -78z"/>
<path d="M3871 3510 c50 -78 52 -80 90 -80 21 0 39 3 39 7 0 11 -82 113 -108
134 -14 10 -35 19 -48 19 -22 0 -21 -4 27 -80z"/>
<path d="M3860 3395 c0 -3 18 -41 40 -85 39 -77 42 -80 75 -80 20 0 35 5 35
12 0 14 -57 116 -78 141 -13 15 -72 25 -72 12z"/>
<path d="M3955 3391 c-3 -5 -1 -13 5 -16 6 -4 26 -38 45 -76 35 -68 36 -69 76
-69 l40 0 -28 50 c-43 78 -81 120 -108 120 -13 0 -26 -4 -30 -9z"/>
<path d="M4064 3368 c9 -13 28 -47 43 -76 14 -29 32 -57 38 -62 12 -10 55 -3
55 9 0 4 -21 40 -46 79 -40 63 -49 72 -76 72 -30 0 -30 -1 -14 -22z"/>
<path d="M4153 3358 c9 -12 31 -49 48 -80 27 -50 36 -58 60 -58 16 0 29 3 29
8 0 4 -24 39 -53 77 -35 47 -60 71 -77 73 -23 4 -23 3 -7 -20z"/>
<path d="M3635 3200 c-3 -5 2 -36 11 -67 9 -32 20 -69 24 -83 6 -22 13 -25 60
-28 40 -2 51 0 48 10 -3 7 -13 40 -22 73 -25 86 -40 105 -81 105 -18 0 -37 -4
-40 -10z"/>
<path d="M3750 3198 c0 -6 12 -49 27 -95 l27 -83 49 0 c43 0 48 2 42 18 -4 9
-17 48 -30 86 -13 38 -30 73 -37 77 -20 13 -78 11 -78 -3z"/>
<path d="M3860 3203 c0 -4 13 -46 29 -93 l28 -85 46 -3 c26 -2 47 1 47 5 0 4
-19 46 -43 93 -39 78 -45 85 -74 88 -18 2 -33 0 -33 -5z"/>
<path d="M3960 3196 c0 -13 73 -172 81 -177 9 -5 69 0 69 6 0 9 -62 151 -71
162 -10 11 -79 20 -79 9z"/>
<path d="M4060 3195 c0 -3 10 -25 22 -48 12 -23 27 -60 33 -82 12 -38 14 -40
58 -43 l46 -3 -36 78 c-19 43 -40 84 -45 91 -10 11 -78 18 -78 7z"/>
<path d="M4170 3180 c0 -6 17 -47 37 -91 36 -79 37 -81 67 -75 16 4 31 8 34
10 2 3 -15 41 -38 85 -38 73 -45 81 -71 81 -16 0 -29 -5 -29 -10z"/>
<path d="M4260 3183 c0 -2 18 -42 40 -89 37 -77 43 -84 70 -84 17 0 30 5 30
12 0 7 -19 44 -41 84 -34 59 -47 73 -70 76 -16 3 -29 3 -29 1z"/>
<path d="M3553 2963 c4 -16 11 -56 18 -90 l11 -63 60 0 60 0 -6 38 c-4 20 -14
61 -22 90 l-15 52 -55 0 c-56 0 -56 0 -51 -27z"/>
<path d="M4364 2963 c55 -165 48 -153 89 -153 20 0 37 4 37 9 0 5 -13 42 -30
82 -16 41 -30 75 -30 77 0 1 -16 2 -36 2 -30 0 -35 -3 -30 -17z"/>
<path d="M3593 2720 c12 -113 10 -110 83 -110 35 0 64 3 64 8 -1 4 -9 41 -18
82 l-18 75 -58 3 -59 3 6 -61z"/>
<path d="M4110 2581 c-16 -31 -12 -49 15 -67 24 -16 27 -16 45 1 22 20 26 55
8 73 -18 18 -56 14 -68 -7z"/>
<path d="M2331 2196 c-148 -49 -174 -246 -43 -328 31 -19 51 -23 117 -23 74 0
121 13 183 51 2 2 -4 17 -14 34 -15 24 -21 28 -29 17 -32 -44 -147 -62 -205
-32 -42 21 -63 68 -57 122 10 93 105 138 207 97 22 -9 45 -25 51 -36 10 -19
12 -18 33 13 l23 33 -61 29 c-72 34 -145 42 -205 23z"/>
<path d="M3199 2194 c-126 -38 -166 -202 -73 -298 41 -43 99 -60 175 -53 67 6
106 25 136 65 78 106 33 250 -90 287 -61 18 -88 18 -148 -1z m163 -83 c51 -57
49 -133 -4 -183 -39 -36 -114 -40 -159 -7 -57 40 -63 143 -11 191 36 34 49 38
102 34 34 -3 51 -11 72 -35z"/>
<path d="M1585 2025 l0 -175 45 0 45 0 0 175 0 175 -45 0 -45 0 0 -175z"/>
<path d="M1759 2186 c9 -11 11 -62 9 -175 l-3 -161 40 0 40 0 -3 117 -2 118
104 -110 c58 -60 102 -113 100 -117 -3 -4 16 -8 43 -8 l48 0 0 175 0 175 -50
0 c-38 0 -46 -3 -37 -12 8 -8 12 -49 12 -117 l0 -106 -101 103 c-66 66 -99
108 -95 117 4 12 -6 15 -56 15 -51 0 -59 -2 -49 -14z"/>
<path d="M2665 2026 l0 -176 45 0 45 0 -3 70 -4 70 49 0 c48 0 48 -1 86 -58
20 -32 37 -64 37 -70 0 -8 20 -12 57 -12 l57 0 -25 28 c-35 38 -79 99 -79 109
0 4 15 15 33 23 65 30 73 120 14 164 -25 19 -45 21 -170 24 l-142 3 0 -175z
m263 102 c18 -18 14 -56 -7 -68 -11 -5 -54 -10 -95 -10 l-76 0 0 45 0 45 83 0
c51 0 88 -5 95 -12z"/>
<path d="M3538 2191 c10 -6 12 -46 10 -174 l-3 -167 40 0 40 0 -3 117 c-3 134
-7 135 74 -15 64 -118 51 -121 134 28 29 52 54 97 57 100 2 2 3 -48 1 -113
l-3 -117 45 0 45 0 -3 167 c-2 128 0 168 10 174 8 5 -17 9 -59 9 -59 0 -71 -3
-67 -15 6 -14 -83 -195 -95 -195 -13 0 -103 181 -97 195 4 12 -8 15 -67 15
-42 0 -67 -4 -59 -9z"/>
<path d="M4167 2177 c3 -14 -22 -78 -69 -175 l-73 -152 48 0 c28 0 46 4 42 10
-3 5 1 25 9 45 l15 35 79 0 78 0 17 -36 c10 -19 15 -40 12 -45 -4 -5 17 -9 47
-9 l54 0 -79 158 c-43 86 -76 165 -73 175 4 15 -4 17 -54 17 -54 0 -57 -1 -53
-23z m79 -124 c11 -27 21 -51 22 -55 2 -5 -19 -8 -47 -8 -28 0 -51 3 -51 6 0
14 43 104 50 104 4 0 16 -21 26 -47z"/>
<path d="M2510 1291 c0 -21 3 -59 6 -85 l7 -46 63 0 64 0 0 33 c0 17 -3 56 -6
85 l-7 52 -63 0 -64 0 0 -39z"/>
<path d="M2670 1248 l5 -83 68 -3 67 -3 0 48 c0 26 -3 65 -6 86 l-7 37 -66 0
-66 0 5 -82z"/>
<path d="M2830 1245 l0 -85 70 0 70 0 0 85 0 85 -70 0 -70 0 0 -85z"/>
<path d="M2990 1245 l0 -85 75 0 75 0 0 33 c0 17 3 56 6 85 l7 52 -82 0 -81 0
0 -85z"/>
<path d="M3430 1151 c0 -6 -19 -11 -44 -11 -25 0 -47 -3 -49 -7 -3 -5 -8 -40
-12 -80 -7 -69 -6 -71 17 -76 22 -4 22 -4 -3 -6 -24 -1 -27 -6 -33 -53 -12
-101 -13 -98 49 -98 l55 0 0 38 c0 20 9 51 20 67 22 33 37 58 60 95 23 36 12
82 -27 115 -18 15 -33 22 -33 16z"/>
<path d="M2376 1093 c15 -99 13 -98 83 -101 l62 -3 -6 48 c-11 86 -13 90 -46
97 -17 3 -47 6 -66 6 l-34 0 7 -47z"/>
<path d="M2526 1133 c-1 -2 2 -34 7 -73 l10 -70 64 0 64 0 -6 48 c-12 95 -9
90 -76 94 -33 1 -62 2 -63 1z"/>
<path d="M2680 1113 c0 -10 3 -42 6 -70 l7 -53 65 0 65 0 -7 31 c-3 17 -6 49
-6 70 l0 39 -65 0 c-55 0 -65 -3 -65 -17z"/>
<path d="M2834 1114 c3 -9 6 -40 6 -70 l0 -54 65 0 65 0 0 70 0 70 -71 0 c-61
0 -70 -2 -65 -16z"/>
<path d="M2990 1060 l0 -70 69 0 69 0 6 31 c3 17 6 49 6 70 l0 39 -75 0 -75 0
0 -70z"/>
<path d="M3160 1065 c0 -36 0 -68 0 -72 0 -8 129 -7 137 1 3 3 9 35 12 71 l7
65 -78 0 -78 0 0 -65z"/>
<path d="M2414 933 c4 -21 12 -53 17 -70 10 -32 12 -33 65 -33 61 0 59 -2 42
82 l-12 58 -59 0 -59 0 6 -37z"/>
<path d="M2555 933 c4 -21 11 -55 16 -76 l10 -38 52 7 c29 4 53 8 55 9 1 1 -1
31 -5 66 l-8 64 -63 3 -63 3 6 -38z"/>
<path d="M2704 903 c4 -36 9 -70 12 -75 3 -4 30 -8 61 -8 l56 0 -7 46 c-3 26
-6 60 -6 75 0 29 -1 29 -61 29 l-62 0 7 -67z"/>
<path d="M2844 924 c3 -26 6 -60 6 -75 0 -29 1 -29 60 -29 l60 0 0 75 0 75
-66 0 -67 0 7 -46z"/>
<path d="M2990 895 l0 -75 64 0 63 0 7 46 c3 26 6 60 6 75 l0 29 -70 0 -70 0
0 -75z"/>
<path d="M3156 962 c-2 -4 -6 -37 -7 -72 l-3 -65 59 -3 c32 -2 62 1 66 5 4 4
11 38 15 76 l7 67 -66 0 c-36 0 -68 -3 -71 -8z"/>
<path d="M2450 797 c0 -7 7 -34 16 -60 l16 -47 50 0 50 0 -7 36 c-14 78 -20
84 -75 84 -35 0 -50 -4 -50 -13z"/>
<path d="M2590 768 c4 -18 11 -45 14 -60 6 -25 9 -26 56 -25 29 1 50 7 50 13
0 6 -3 32 -6 58 l-7 46 -58 0 -57 0 8 -32z"/>
<path d="M2724 763 c13 -73 13 -73 67 -73 54 0 54 1 43 73 l-7 37 -54 0 -55 0
6 -37z"/>
<path d="M2858 745 l4 -55 54 0 54 0 0 55 0 55 -57 0 -58 0 3 -55z"/>
<path d="M2992 743 l3 -57 55 1 c30 0 55 5 56 9 1 5 4 30 7 57 l5 47 -65 0
-64 0 3 -57z"/>
<path d="M3136 744 c-4 -31 -5 -58 -3 -60 1 -2 28 0 60 3 56 6 57 6 63 42 3
20 8 44 11 54 4 15 -4 17 -60 17 l-64 0 -7 -56z"/>
<path d="M2000 1588 c-106 -57 -135 -167 -74 -286 33 -63 143 -222 154 -222
10 0 123 167 155 227 40 77 42 120 12 186 -45 99 -158 142 -247 95z m149 -89
c25 -25 31 -39 31 -74 0 -120 -162 -145 -200 -31 -15 45 -4 81 32 111 43 37
97 34 137 -6z"/>
</g>
</svg>
